<svg xmlns="http://www.w3.org/2000/svg" viewBox="0 0 84 112" overflow="visible">
<g transform="translate(12,46)"><path d="M34,12 C31,4 14,4 13,14 C12,24 33,32 33,44 C34,56 13,58 12,48" fill="none" stroke="#FFFFFF" stroke-width="7" stroke-linecap="round"></path><path d="M26,32 C31,34 35,37 38,41" fill="none" stroke="#FFFFFF" stroke-width="4.5" stroke-linecap="round"></path><path d="M13.5,13.5 C10,10.5 7.5,7.5 5,4.5" fill="none" stroke="#FFFFFF" stroke-width="4" stroke-linecap="round"></path><path d="M28,51 C31.5,53.5 34,55.5 36.5,58" fill="none" stroke="#FFFFFF" stroke-width="4" stroke-linecap="round"></path><circle cx="12" cy="48" r="3.6" fill="var(--gs-bg, transparent)" stroke="#FFFFFF" stroke-width="4"></circle><circle cx="38" cy="41" r="3" fill="#FFFFFF" stroke="#FFFFFF" stroke-width="4"></circle><circle cx="5" cy="4.5" r="2.8" fill="#FFFFFF" stroke="#FFFFFF" stroke-width="4"></circle><g transform="translate(36,57) rotate(-25) scale(0.8)"><path d="M0,0 Q5,-4.5 10.5,-1 Q5.5,3.5 0,0 Z" fill="#FFFFFF"></path></g><g transform="translate(9,9) rotate(-60) scale(0.65)"><path d="M0,0 Q5,-4.5 10.5,-1 Q5.5,3.5 0,0 Z" fill="#FFFFFF"></path></g><circle cx="34" cy="12" r="3.8" fill="var(--gs-bg, transparent)" stroke="#FFFFFF" stroke-width="4"></circle><g transform="translate(30,6) rotate(-110) scale(0.55)"><path d="M0,0 Q5,-4.5 10.5,-1 Q5.5,3.5 0,0 Z" fill="#FFFFFF"></path></g></g></svg>