<svg xmlns="http://www.w3.org/2000/svg" viewBox="0 0 64 64"><rect width="64" height="64" rx="15" fill="#14181B"/><g transform="translate(7.50,9.70) scale(1.0652,0.8731)"><g fill="none" stroke="#7BC896" stroke-linecap="round"><path d="M12 47.5 C8.5 51 5.5 53.5 2 56.5" stroke-width="2.4"/><path d="M12 47.5 C14.5 51.5 17 54 20 57" stroke-width="2.4"/><path d="M34 12 C31 4 14 4 13 14" stroke-width="3"/><path d="M13 14 C12 24 33 32 33 44" stroke-width="5.2"/><path d="M33 44 C34 56 13 58 12 48" stroke-width="7"/><path d="M13.5 13.5 C10 10.5 7.5 7.5 5 4.5" stroke-width="2.2"/><path d="M24 4.8 C21.5 3.2 19.5 2.2 17 1" stroke-width="1.9"/><path d="M30 6.5 C32 4.5 33.5 3 35.5 1.5" stroke-width="1.8"/></g><circle cx="34" cy="12" r="3.8" fill="#14181B" stroke="#7BC896" stroke-width="2.4"/><circle cx="5" cy="4.5" r="2.8" fill="#7BC896"/><g transform="translate(17,1) rotate(-105) scale(0.9)"><g transform="rotate(-44) scale(0.8)"><path d="M0,0 Q5,-4.5 10.5,-1 Q5.5,3.5 0,0 Z" fill="#7BC896" opacity="0.95"/></g><g transform="rotate(0) scale(1)"><path d="M0,0 Q5,-4.5 10.5,-1 Q5.5,3.5 0,0 Z" fill="#7BC896" opacity="0.95"/></g><g transform="rotate(42) scale(0.78)"><path d="M0,0 Q5,-4.5 10.5,-1 Q5.5,3.5 0,0 Z" fill="#7BC896" opacity="0.95"/></g></g><g transform="translate(35.5,1.5) rotate(-55) scale(0.62)"><g transform="rotate(-44) scale(0.8)"><path d="M0,0 Q5,-4.5 10.5,-1 Q5.5,3.5 0,0 Z" fill="#7BC896" opacity="0.95"/></g><g transform="rotate(0) scale(1)"><path d="M0,0 Q5,-4.5 10.5,-1 Q5.5,3.5 0,0 Z" fill="#7BC896" opacity="0.95"/></g><g transform="rotate(42) scale(0.78)"><path d="M0,0 Q5,-4.5 10.5,-1 Q5.5,3.5 0,0 Z" fill="#7BC896" opacity="0.95"/></g></g><g transform="translate(9,9) rotate(-55) scale(0.55)"><g transform="rotate(0) scale(1)"><path d="M0,0 Q5,-4.5 10.5,-1 Q5.5,3.5 0,0 Z" fill="#7BC896" opacity="0.95"/></g></g><g transform="translate(12.5,20) rotate(170) scale(0.5)"><g transform="rotate(0) scale(1)"><path d="M0,0 Q5,-4.5 10.5,-1 Q5.5,3.5 0,0 Z" fill="#7BC896" opacity="0.95"/></g></g></g></svg>
