<svg xmlns="http://www.w3.org/2000/svg" viewBox="0 0 46 62" overflow="visible">

<path d="M34,12 C31,4 14,4 13,14 C12,24 33,32 33,44 C34,56 13,58 12,48" pathLength="1" fill="none" stroke="#C96C93" stroke-width="7" stroke-linecap="round" style="stroke-dasharray:1;stroke-dashoffset:1;animation:gsDraw 0.9s cubic-bezier(0.2,0.9,0.3,1) 0.1s both"></path>
<path d="M26,32 C31,34 35,37 38,41" pathLength="1" fill="none" stroke="#C96C93" stroke-width="4.5" stroke-linecap="round" style="stroke-dasharray:1;stroke-dashoffset:1;animation:gsDraw 0.3s cubic-bezier(0.2,0.9,0.3,1) 0.75s both"></path>
<path d="M13.5,13.5 C10,10.5 7.5,7.5 5,4.5" pathLength="1" fill="none" stroke="#C96C93" stroke-width="4" stroke-linecap="round" style="stroke-dasharray:1;stroke-dashoffset:1;animation:gsDraw 0.3s cubic-bezier(0.2,0.9,0.3,1) 0.9s both"></path>
<path d="M28,51 C31.5,53.5 34,55.5 36.5,58" pathLength="1" fill="none" stroke="#C96C93" stroke-width="4" stroke-linecap="round" style="stroke-dasharray:1;stroke-dashoffset:1;animation:gsDraw 0.3s cubic-bezier(0.2,0.9,0.3,1) 1s both"></path>
<circle cx="34" cy="12" r="4" fill="var(--gs-bg, transparent)" stroke="#C96C93" stroke-width="4" style="transform-box:fill-box;transform-origin:center;animation:gsPop 0.35s cubic-bezier(0.2,0.9,0.3,1) 1.1s both"></circle>
<circle cx="12" cy="48" r="4" fill="var(--gs-bg, transparent)" stroke="#C96C93" stroke-width="4" style="transform-box:fill-box;transform-origin:center;animation:gsPop 0.35s cubic-bezier(0.2,0.9,0.3,1) 1.2s both"></circle>
<circle cx="38" cy="41" r="3.2" fill="#C96C93" stroke="#C96C93" stroke-width="4" style="transform-box:fill-box;transform-origin:center;animation:gsPop 0.35s cubic-bezier(0.2,0.9,0.3,1) 1.3s both"></circle>
<circle cx="5" cy="4.5" r="3" fill="#C96C93" stroke="#C96C93" stroke-width="4" style="transform-box:fill-box;transform-origin:center;animation:gsPop 0.35s cubic-bezier(0.2,0.9,0.3,1) 1.4s both"></circle>
<g transform="translate(36,57) rotate(-25) scale(0.85)"><path d="M0,0 Q5,-4.5 10.5,-1 Q5.5,3.5 0,0 Z" fill="#C96C93" style="transform-box:fill-box;transform-origin:left center;animation:gsLeaf 0.45s cubic-bezier(0.2,0.9,0.3,1) 1.45s both"></path></g>
<g transform="translate(9,9) rotate(-60) scale(0.7)"><path d="M0,0 Q5,-4.5 10.5,-1 Q5.5,3.5 0,0 Z" fill="#C96C93" style="transform-box:fill-box;transform-origin:left center;animation:gsLeaf 0.45s cubic-bezier(0.2,0.9,0.3,1) 1.55s both"></path></g>
<g transform="translate(30,6) rotate(-110) scale(0.6)"><path d="M0,0 Q5,-4.5 10.5,-1 Q5.5,3.5 0,0 Z" fill="#C96C93" style="transform-box:fill-box;transform-origin:left center;animation:gsLeaf 0.45s cubic-bezier(0.2,0.9,0.3,1) 1.65s both"></path></g>
</svg>