<svg xmlns="http://www.w3.org/2000/svg" viewBox="0 0 84 112" overflow="visible">
<g transform="translate(12,46)"><path d="M34,12 C31,4 14,4 13,14 C12,24 33,32 33,44 C34,56 13,58 12,48" fill="none" stroke="#82C99B" stroke-width="7" stroke-linecap="round"></path><path d="M26,32 C31,34 35,37 38,41" fill="none" stroke="#82C99B" stroke-width="4.5" stroke-linecap="round"></path><path d="M13.5,13.5 C10,10.5 7.5,7.5 5,4.5" fill="none" stroke="#82C99B" stroke-width="4" stroke-linecap="round"></path><path d="M28,51 C31.5,53.5 34,55.5 36.5,58" fill="none" stroke="#82C99B" stroke-width="4" stroke-linecap="round"></path><circle cx="12" cy="48" r="3.6" fill="var(--gs-bg, transparent)" stroke="#82C99B" stroke-width="4"></circle><circle cx="38" cy="41" r="3" fill="#82C99B" stroke="#82C99B" stroke-width="4"></circle><circle cx="5" cy="4.5" r="2.8" fill="#82C99B" stroke="#82C99B" stroke-width="4"></circle><g transform="translate(36,57) rotate(-25) scale(0.8)"><path d="M0,0 Q5,-4.5 10.5,-1 Q5.5,3.5 0,0 Z" fill="#82C99B"></path></g><g transform="translate(9,9) rotate(-60) scale(0.65)"><path d="M0,0 Q5,-4.5 10.5,-1 Q5.5,3.5 0,0 Z" fill="#82C99B"></path></g></g><path d="M46,58 C50,48 47,40 42,32" fill="none" stroke="#82C99B" stroke-width="4.5" stroke-linecap="round"></path><path d="M45,44 C41,40 36,37 31,34" fill="none" stroke="#82C99B" stroke-width="2.6" stroke-linecap="round"></path><g transform="translate(31,34) rotate(-150) scale(0.8)"><g transform="rotate(-44) scale(0.8)"><path d="M0,0 Q5,-4.5 10.5,-1 Q5.5,3.5 0,0 Z" fill="#82C99B"></path></g><g transform="rotate(0) scale(1)"><path d="M0,0 Q5,-4.5 10.5,-1 Q5.5,3.5 0,0 Z" fill="#82C99B"></path></g><g transform="rotate(42) scale(0.78)"><path d="M0,0 Q5,-4.5 10.5,-1 Q5.5,3.5 0,0 Z" fill="#82C99B"></path></g></g><circle cx="42" cy="32" r="3.4" fill="var(--gs-bg, transparent)" stroke="#82C99B" stroke-width="4"></circle><g transform="translate(49,50) rotate(15) scale(0.6)"><path d="M0,0 Q5,-4.5 10.5,-1 Q5.5,3.5 0,0 Z" fill="#82C99B"></path></g><path d="M43,40 C50,37 57,35 63,31" fill="none" stroke="#82C99B" stroke-width="2.4" stroke-linecap="round"></path><path d="M42,31 C44,27 46,24 49,21" fill="none" stroke="#82C99B" stroke-width="2.2" stroke-linecap="round"></path><path d="M42,32 C38,27 34,24 29,21" fill="none" stroke="#82C99B" stroke-width="2" stroke-linecap="round"></path><g transform="translate(63,31) rotate(-35) scale(0.85)"><g transform="rotate(-44) scale(0.8)"><path d="M0,0 Q5,-4.5 10.5,-1 Q5.5,3.5 0,0 Z" fill="#82C99B"></path></g><g transform="rotate(0) scale(1)"><path d="M0,0 Q5,-4.5 10.5,-1 Q5.5,3.5 0,0 Z" fill="#82C99B"></path></g><g transform="rotate(42) scale(0.78)"><path d="M0,0 Q5,-4.5 10.5,-1 Q5.5,3.5 0,0 Z" fill="#82C99B"></path></g></g><g transform="translate(49,21) rotate(-80) scale(0.95)"><g transform="rotate(-44) scale(0.8)"><path d="M0,0 Q5,-4.5 10.5,-1 Q5.5,3.5 0,0 Z" fill="#82C99B"></path></g><g transform="rotate(0) scale(1)"><path d="M0,0 Q5,-4.5 10.5,-1 Q5.5,3.5 0,0 Z" fill="#82C99B"></path></g><g transform="rotate(42) scale(0.78)"><path d="M0,0 Q5,-4.5 10.5,-1 Q5.5,3.5 0,0 Z" fill="#82C99B"></path></g></g><g transform="translate(29,21) rotate(-130) scale(0.8)"><g transform="rotate(-44) scale(0.8)"><path d="M0,0 Q5,-4.5 10.5,-1 Q5.5,3.5 0,0 Z" fill="#82C99B"></path></g><g transform="rotate(0) scale(1)"><path d="M0,0 Q5,-4.5 10.5,-1 Q5.5,3.5 0,0 Z" fill="#82C99B"></path></g><g transform="rotate(42) scale(0.78)"><path d="M0,0 Q5,-4.5 10.5,-1 Q5.5,3.5 0,0 Z" fill="#82C99B"></path></g></g><circle cx="63" cy="31" r="2.6" fill="#82C99B" stroke="#82C99B" stroke-width="4"></circle><g transform="translate(54,36) rotate(-60) scale(0.6)"><path d="M0,0 Q5,-4.5 10.5,-1 Q5.5,3.5 0,0 Z" fill="#82C99B"></path></g><g transform="translate(38,34) rotate(150) scale(0.55)"><path d="M0,0 Q5,-4.5 10.5,-1 Q5.5,3.5 0,0 Z" fill="#82C99B"></path></g></svg>