<svg xmlns="http://www.w3.org/2000/svg" viewBox="0 0 84 112" overflow="visible">

<g transform="translate(12,46)"><path d="M34,12 C31,4 14,4 13,14 C12,24 33,32 33,44 C34,56 13,58 12,48" pathLength="1" fill="none" stroke="#3FB950" stroke-width="7" stroke-linecap="round" style="stroke-dasharray:1;stroke-dashoffset:1;animation:gsDraw 0.9s cubic-bezier(0.2,0.9,0.3,1) 0.05s both"></path><path d="M26,32 C31,34 35,37 38,41" pathLength="1" fill="none" stroke="#3FB950" stroke-width="4.5" stroke-linecap="round" style="stroke-dasharray:1;stroke-dashoffset:1;animation:gsDraw 0.3s cubic-bezier(0.2,0.9,0.3,1) 0.7s both"></path><path d="M13.5,13.5 C10,10.5 7.5,7.5 5,4.5" pathLength="1" fill="none" stroke="#3FB950" stroke-width="4" stroke-linecap="round" style="stroke-dasharray:1;stroke-dashoffset:1;animation:gsDraw 0.3s cubic-bezier(0.2,0.9,0.3,1) 0.82s both"></path><path d="M28,51 C31.5,53.5 34,55.5 36.5,58" pathLength="1" fill="none" stroke="#3FB950" stroke-width="4" stroke-linecap="round" style="stroke-dasharray:1;stroke-dashoffset:1;animation:gsDraw 0.3s cubic-bezier(0.2,0.9,0.3,1) 0.92s both"></path><circle cx="12" cy="48" r="3.6" fill="var(--gs-bg, transparent)" stroke="#3FB950" stroke-width="4" style="transform-box:fill-box;transform-origin:center;animation:gsPop 0.35s cubic-bezier(0.2,0.9,0.3,1) 1s both"></circle><circle cx="38" cy="41" r="3" fill="#3FB950" stroke="#3FB950" stroke-width="4" style="transform-box:fill-box;transform-origin:center;animation:gsPop 0.35s cubic-bezier(0.2,0.9,0.3,1) 1.1s both"></circle><circle cx="5" cy="4.5" r="2.8" fill="#3FB950" stroke="#3FB950" stroke-width="4" style="transform-box:fill-box;transform-origin:center;animation:gsPop 0.35s cubic-bezier(0.2,0.9,0.3,1) 1.2s both"></circle><g transform="translate(36,57) rotate(-25) scale(0.8)"><path d="M0,0 Q5,-4.5 10.5,-1 Q5.5,3.5 0,0 Z" fill="#3FB950" style="transform-box:fill-box;transform-origin:left center;animation:gsLeaf 0.45s cubic-bezier(0.2,0.9,0.3,1) 1.25s both"></path></g><g transform="translate(9,9) rotate(-60) scale(0.65)"><path d="M0,0 Q5,-4.5 10.5,-1 Q5.5,3.5 0,0 Z" fill="#3FB950" style="transform-box:fill-box;transform-origin:left center;animation:gsLeaf 0.45s cubic-bezier(0.2,0.9,0.3,1) 1.32s both"></path></g></g><path d="M46,58 C50,48 47,40 42,32" pathLength="1" fill="none" stroke="#3FB950" stroke-width="4.5" stroke-linecap="round" style="stroke-dasharray:1;stroke-dashoffset:1;animation:gsDraw 0.5s cubic-bezier(0.2,0.9,0.3,1) 1.45s both"></path><path d="M45,44 C41,40 36,37 31,34" pathLength="1" fill="none" stroke="#3FB950" stroke-width="2.6" stroke-linecap="round" style="stroke-dasharray:1;stroke-dashoffset:1;animation:gsDraw 0.3s cubic-bezier(0.2,0.9,0.3,1) 1.8s both"></path><g transform="translate(31,34) rotate(-150) scale(0.8)"><g transform="rotate(-44) scale(0.8)"><path d="M0,0 Q5,-4.5 10.5,-1 Q5.5,3.5 0,0 Z" fill="#3FB950" style="transform-box:fill-box;transform-origin:left center;animation:gsLeaf 0.45s cubic-bezier(0.2,0.9,0.3,1) 2s both"></path></g><g transform="rotate(0) scale(1)"><path d="M0,0 Q5,-4.5 10.5,-1 Q5.5,3.5 0,0 Z" fill="#3FB950" style="transform-box:fill-box;transform-origin:left center;animation:gsLeaf 0.45s cubic-bezier(0.2,0.9,0.3,1) 2s both"></path></g><g transform="rotate(42) scale(0.78)"><path d="M0,0 Q5,-4.5 10.5,-1 Q5.5,3.5 0,0 Z" fill="#3FB950" style="transform-box:fill-box;transform-origin:left center;animation:gsLeaf 0.45s cubic-bezier(0.2,0.9,0.3,1) 2s both"></path></g></g><circle cx="42" cy="32" r="3.4" fill="var(--gs-bg, transparent)" stroke="#3FB950" stroke-width="4" style="transform-box:fill-box;transform-origin:center;animation:gsPop 0.35s cubic-bezier(0.2,0.9,0.3,1) 2.1s both"></circle><g transform="translate(49,50) rotate(15) scale(0.6)"><path d="M0,0 Q5,-4.5 10.5,-1 Q5.5,3.5 0,0 Z" fill="#3FB950" style="transform-box:fill-box;transform-origin:left center;animation:gsLeaf 0.45s cubic-bezier(0.2,0.9,0.3,1) 2.15s both"></path></g></svg>